<?xml version="1.0" encoding="UTF-8" standalone="no"?>
<!-- Uploaded to: SVG Repo, www.svgrepo.com, Generator: SVG Repo Mixer Tools -->

<svg
   width="800px"
   height="800px"
   viewBox="0 0 64 64"
   aria-hidden="true"
   role="img"
   class="iconify iconify--emojione-monotone"
   preserveAspectRatio="xMidYMid meet"
   version="1.1"
   id="svg4"
   sodipodi:docname="football-white.svg"
   inkscape:version="1.2.2 (b0a8486541, 2022-12-01)"
   xmlns:inkscape="http://www.inkscape.org/namespaces/inkscape"
   xmlns:sodipodi="http://sodipodi.sourceforge.net/DTD/sodipodi-0.dtd"
   xmlns="http://www.w3.org/2000/svg"
   xmlns:svg="http://www.w3.org/2000/svg">
  <defs
     id="defs8" />
  <sodipodi:namedview
     id="namedview6"
     pagecolor="#ffffff"
     bordercolor="#000000"
     borderopacity="0.25"
     inkscape:showpageshadow="2"
     inkscape:pageopacity="0.0"
     inkscape:pagecheckerboard="0"
     inkscape:deskcolor="#d1d1d1"
     showgrid="false"
     inkscape:zoom="1.01"
     inkscape:cx="400"
     inkscape:cy="400.49505"
     inkscape:window-width="1920"
     inkscape:window-height="1013"
     inkscape:window-x="0"
     inkscape:window-y="0"
     inkscape:window-maximized="1"
     inkscape:current-layer="svg4" />
  <path
     d="M59.284 4.714C58.27 3.701 55.587 2 49.022 2c-2.741 0-5.859.307-9.27.912a57.369 57.369 0 0 0-9.213 2.413c-6.229 2.221-11.512 5.47-15.698 9.658c-4.19 4.192-7.438 9.474-9.654 15.701c-1.031 2.889-1.843 5.988-2.413 9.211c-2.141 12.084.643 16.993 2.494 18.843C6.486 59.956 9.527 62 16.204 62h.001c2.369 0 5.029-.26 7.904-.769c3.236-.574 6.335-1.387 9.208-2.413c6.231-2.22 11.514-5.469 15.702-9.657c4.188-4.191 7.437-9.475 9.655-15.703c1.025-2.879 1.836-5.979 2.411-9.21c2.478-13.974-.753-18.483-1.801-19.534M33.041 24.832c-.987-.988.544-2.52 1.532-1.532l2.299 2.299c1.133-1.131 2.172-2.17 3.064-3.064l-2.3-2.299c-.988-.988.545-2.52 1.534-1.533l2.298 2.3l1.377-1.377c.986-.989 2.518.543 1.532 1.531l-1.378 1.378l2.296 2.298c.989.987-.543 2.519-1.529 1.532l-2.299-2.298l-3.063 3.064l2.298 2.298c.988.988-.546 2.52-1.531 1.533l-2.299-2.298l-3.064 3.065l2.297 2.297c.987.989-.543 2.519-1.531 1.532l-2.297-2.298l-3.064 3.064c.766.766 1.532 1.531 2.297 2.298c.988.987-.545 2.519-1.532 1.533l-2.297-2.299l-3.064 3.064l2.297 2.299c.988.987-.543 2.519-1.531 1.53l-2.297-2.297c-.655.652-1.136 1.135-1.379 1.377c-.987.987-2.518-.544-1.532-1.533l1.378-1.377c-.767-.767-1.533-1.532-2.297-2.298c-.988-.988.543-2.521 1.529-1.533l2.299 2.3l3.063-3.064l-2.299-2.299c-.986-.988.546-2.521 1.533-1.533l2.299 2.298l3.063-3.064l-2.297-2.297c-.989-.989.544-2.52 1.529-1.533l2.299 2.3l3.066-3.065l-2.299-2.299m-9.276 34.462c-.414.074-.813.131-1.217.193c-3.615-2.093-7.055-4.731-10.176-7.855c-3.122-3.12-5.761-6.563-7.853-10.176c.063-.403.118-.795.193-1.218a55.744 55.744 0 0 1 1.933-7.7c1.94 5.356 5.28 10.557 9.773 15.05c4.49 4.492 9.689 7.833 15.046 9.774a56.191 56.191 0 0 1-7.699 1.932m33.454-27.691c-1.942-5.356-5.282-10.554-9.775-15.046c-4.49-4.493-9.69-7.833-15.048-9.775a56.153 56.153 0 0 1 7.701-1.933c.414-.074.81-.129 1.215-.194c3.614 2.094 7.056 4.732 10.18 7.854c3.122 3.126 5.762 6.57 7.855 10.187c-.063.399-.123.794-.197 1.208a56.411 56.411 0 0 1-1.931 7.699"
     fill="#000000"
     id="path2" />
  <path
     style="fill:#ffffff;stroke-width:0.990099"
     d="M 170.79208,773.19306 C 121.15707,768.58011 82.091209,752.58086 61.569859,728.46158 43.972655,707.77914 32.583836,677.36627 27.553487,637.62376 25.809713,623.84699 25.789989,569.9797 27.522854,553.9604 35.0939,483.97055 50.960833,418.30959 74.371064,360.0919 81.651133,341.98748 98.064066,307.93869 107.39465,291.58416 139.26558,235.72118 181.80527,186.28648 230.19802,148.87626 313.47683,84.497245 422.92714,43.559616 550,29.260931 c 36.04136,-4.0555 84.47781,-4.523024 109.40594,-1.05602 40.51897,5.635376 69.15785,17.320075 83.94051,34.24783 12.05605,13.80551 22.06481,39.583499 26.92884,69.356479 8.13216,49.77735 3.50266,123.04328 -12.47313,197.3987 -30.84532,143.56195 -96.56235,253.71909 -195.92097,328.40946 -25.71172,19.32814 -52.20356,35.3217 -85.0648,51.35502 -66.42742,32.41056 -142.48589,53.68906 -224.83619,62.90129 -16.46901,1.84233 -66.7663,2.6597 -81.18812,1.31937 z m 132.0553,-32.60613 c 27.55951,-5.15977 71.44206,-16.2151 87.74668,-22.106 l 3.9604,-1.4309 -2.65639,-1.04953 C 349.70518,699.33027 323.19795,685.61867 289.10891,662.82997 260.22872,643.52342 237.61007,625.22184 212.01423,600.44985 157.38333,547.57736 113.37279,482.90945 88.398272,418.81188 85.958246,412.5495 83.638866,407.0808 83.244096,406.65921 c -0.863017,-0.92167 -9.340997,27.27868 -14.815655,49.28138 -4.485068,18.02553 -9.313578,41.50302 -11.127514,54.10492 l -1.232191,8.56037 5.635199,9.4431 c 45.487125,76.22439 115.090995,148.43385 190.771315,197.91273 22.00992,14.38982 27.71928,17.60265 31.28093,17.60265 1.75346,0 10.3445,-1.33985 19.0912,-2.97743 z M 335.7433,559.65061 c 4.25268,-3.96686 5.80904,-9.16308 4.41186,-14.72989 -0.4149,-1.65309 -6.67907,-8.79321 -15.93712,-18.16566 l -15.25354,-15.44203 18.54873,-18.52945 18.54871,-18.52944 14.34527,14.42588 c 7.8899,7.93424 15.54838,15.06368 17.01887,15.84323 1.47048,0.77954 4.71793,1.41734 7.21655,1.41734 8.66913,0 15.22281,-9.34331 12.93827,-18.44561 -0.4149,-1.65309 -6.67907,-8.79321 -15.93712,-18.16566 l -15.25353,-15.44203 18.54872,-18.52945 18.54871,-18.52944 14.34527,14.42588 c 7.8899,7.93423 15.54839,15.06368 17.01887,15.84322 1.47049,0.77955 4.71793,1.41735 7.21656,1.41735 8.66912,0 15.2228,-9.34332 12.93826,-18.44561 -0.4149,-1.65309 -6.67907,-8.79321 -15.93712,-18.16567 l -15.25353,-15.44203 18.54872,-18.52944 18.54872,-18.52945 14.34526,14.42588 c 7.8899,7.93424 15.6443,15.11328 17.232,15.95345 1.94007,1.02661 4.48751,1.37374 7.76806,1.05852 8.75152,-0.84091 14.39484,-9.31128 12.16289,-18.25595 -0.43391,-1.73893 -6.41599,-8.5476 -15.94945,-18.15334 l -15.25511,-15.37077 18.56104,-18.54177 18.56105,-18.54176 14.34527,14.42588 c 7.8899,7.93424 15.64429,15.11328 17.232,15.95345 1.94006,1.02661 4.4875,1.37374 7.76806,1.05852 6.90701,-0.66367 11.70025,-5.45691 12.36393,-12.36393 0.31521,-3.28055 -0.0319,-5.82799 -1.05853,-7.76806 -0.84017,-1.5877 -8.00134,-9.32426 -15.91372,-17.19234 l -14.38616,-14.30563 9.74373,-10.01487 c 6.46842,-6.64843 9.97053,-11.04748 10.41843,-13.08678 1.54374,-7.02861 -3.36101,-15.09821 -10.4046,-17.11828 -6.55198,-1.87909 -9.51571,-0.41068 -20.25012,10.03311 l -9.98226,9.712 -14.30563,-14.38616 c -7.86808,-7.91238 -15.60464,-15.07355 -17.19234,-15.91372 -1.94007,-1.02661 -4.48751,-1.37374 -7.76806,-1.05853 -6.90702,0.66368 -11.70026,5.45692 -12.36393,12.36393 -0.31522,3.28056 0.0319,5.828 1.05852,7.76806 0.84017,1.58771 8.01921,9.3421 15.95345,17.232 l 14.42588,14.34527 -18.54176,18.56105 -18.54177,18.56104 -15.37077,-15.25511 c -9.60574,-9.53346 -16.41441,-15.51554 -18.15334,-15.94945 -8.94467,-2.23195 -17.41504,3.41137 -18.25595,12.16289 -0.31522,3.28055 0.0319,5.82799 1.05852,7.76806 0.84017,1.5877 8.01921,9.3421 15.95345,17.232 l 14.42588,14.34526 -18.52945,18.54872 -18.52944,18.54872 -15.44203,-15.25353 c -9.37246,-9.25805 -16.51258,-15.52222 -18.16567,-15.93712 -8.8758,-2.22769 -17.3585,3.44716 -18.19701,12.17363 -0.31522,3.28055 0.0319,5.82799 1.05853,7.76806 0.84017,1.5877 8.01921,9.3421 15.95344,17.232 l 14.42588,14.34527 -18.52944,18.54871 -18.52945,18.54872 -15.44203,-15.25353 c -9.37245,-9.25805 -16.51257,-15.52222 -18.16566,-15.93712 -5.56681,-1.39718 -10.76303,0.15918 -14.72989,4.41186 -3.17559,3.4044 -3.71572,4.64384 -3.71572,8.52641 0,2.49862 0.6378,5.74607 1.41734,7.21655 0.77955,1.47049 7.90899,9.12897 15.84323,17.01887 l 14.42588,14.34527 -18.52944,18.54871 -18.52945,18.54873 -15.44203,-15.25354 c -9.37245,-9.25805 -16.51257,-15.52222 -18.16566,-15.93712 -8.8758,-2.22768 -17.35851,3.44717 -18.19701,12.17364 -0.31522,3.28055 0.0319,5.82799 1.05852,7.76805 0.84017,1.58771 8.00134,9.32426 15.91372,17.19235 l 14.38616,14.30562 -9.74373,10.01488 c -10.16744,10.45038 -11.76857,13.41483 -10.46099,19.36822 0.9158,4.1696 5.79649,9.46827 9.99886,10.85518 6.58447,2.17307 9.66518,0.68307 20.61548,-9.97075 l 10.06567,-9.79315 13.81034,13.92698 c 7.59568,7.65983 15.14697,14.76985 16.78063,15.80003 1.84095,1.16089 4.773,1.87446 7.7116,1.87674 4.11431,0.003 5.26809,-0.48767 8.72477,-3.71202 z M 723.27574,370.29703 c 7.53384,-26.33974 12.78694,-49.73294 18.23136,-81.18812 l 0.94254,-5.44554 -5.5738,-9.40594 C 704.46339,219.56048 655.59832,162.60281 603.37531,118.64772 580.89032,99.722538 547.80344,76.046407 525.74257,63.095704 L 516.33663,57.574 502.47525,59.94705 c -36.3391,6.221201 -99.61547,22.677403 -96.86974,25.192784 0.45658,0.418267 6.17667,2.863527 12.71132,5.433915 26.19594,10.304091 59.61575,27.792471 85.64357,44.816741 31.38529,20.52849 58.30707,42.41357 86.53149,70.34265 51.75241,51.21084 92.76921,111.39505 117.33827,172.17116 2.82144,6.97936 5.61577,13.80362 6.2096,15.16501 l 1.07971,2.47524 1.45859,-3.46534 c 0.80224,-1.90594 3.81619,-11.70792 6.69768,-21.78218 z"
     id="path308"
     transform="scale(0.08)" />
</svg>
